<?xml version="1.0" standalone="no"?>
<!DOCTYPE svg PUBLIC "-//W3C//DTD SVG 20010904//EN"
 "http://www.w3.org/TR/2001/REC-SVG-20010904/DTD/svg10.dtd">
<svg version="1.0" xmlns="http://www.w3.org/2000/svg"
 width="400.000000pt" height="400.000000pt" viewBox="0 0 400.000000 400.000000"
 preserveAspectRatio="xMidYMid meet">

<g transform="translate(0.000000,400.000000) scale(0.100000,-0.100000)"
fill="#000000" stroke="none">
<path d="M1212 2938 c-35 -4 -75 -14 -88 -23 -14 -9 -29 -13 -35 -9 -13 8 -29
-13 -29 -38 0 -13 8 -18 30 -18 22 0 30 5 30 18 0 26 63 54 140 61 41 4 56 8
40 12 -14 2 -54 1 -88 -3z"/>
<path d="M1597 2706 c-40 -41 -40 -46 7 -70 34 -17 46 -13 46 15 0 16 7 19 54
19 31 0 58 5 62 12 4 6 3 8 -4 4 -6 -3 -13 -2 -17 4 -3 5 -28 10 -55 10 -43 0
-49 3 -52 23 -4 21 -6 20 -41 -17z"/>
<path d="M848 2703 c12 -2 32 -2 45 0 12 2 2 4 -23 4 -25 0 -35 -2 -22 -4z"/>
<path d="M758 2693 c6 -2 18 -2 25 0 6 3 1 5 -13 5 -14 0 -19 -2 -12 -5z"/>
<path d="M1186 2655 c4 -8 8 -15 10 -15 2 0 4 7 4 15 0 8 -4 15 -10 15 -5 0
-7 -7 -4 -15z"/>
<path d="M1221 2654 c0 -11 3 -14 6 -6 3 7 2 16 -1 19 -3 4 -6 -2 -5 -13z"/>
<path d="M1810 2666 c0 -2 26 -19 58 -39 68 -42 101 -76 136 -137 31 -54 35
-46 5 11 -28 55 -95 126 -141 150 -35 18 -58 24 -58 15z"/>
<path d="M476 2560 c-55 -59 -82 -114 -92 -188 -5 -42 -9 -50 -20 -41 -11 9
-15 8 -20 -4 -7 -19 44 -96 63 -97 17 0 67 76 58 90 -4 6 -15 8 -26 5 -10 -4
-19 -5 -19 -3 0 3 5 31 11 64 12 64 46 141 79 176 17 19 27 48 16 48 -2 0 -24
-23 -50 -50z"/>
<path d="M1357 2483 c-9 -9 -9 -53 1 -53 4 0 7 14 8 30 1 32 1 33 -9 23z"/>
<path d="M1558 2483 c7 -3 16 -2 19 1 4 3 -2 6 -13 5 -11 0 -14 -3 -6 -6z"/>
<path d="M1405 2449 c0 -34 1 -35 14 -10 8 13 7 22 -2 29 -9 8 -12 3 -12 -19z"/>
<path d="M1985 2420 c10 -11 20 -20 23 -20 3 0 -3 9 -13 20 -10 11 -20 20 -23
20 -3 0 3 -9 13 -20z"/>
<path d="M1790 2316 c0 -2 8 -10 18 -17 15 -13 16 -12 3 4 -13 16 -21 21 -21
13z"/>
<path d="M1010 2299 c0 -5 5 -7 10 -4 6 3 10 8 10 11 0 2 -4 4 -10 4 -5 0 -10
-5 -10 -11z"/>
<path d="M2018 2302 c-18 -2 -45 -25 -90 -79 -59 -72 -63 -74 -66 -49 l-3 28
-136 -4 c-134 -3 -135 -3 -159 -31 -23 -27 -24 -32 -24 -208 l0 -179 35 0 35
0 2 168 3 167 167 5 166 5 22 28 c12 15 26 27 31 27 5 0 9 -25 9 -56 0 -37 -4
-53 -11 -48 -8 5 -8 1 0 -14 6 -12 11 -75 11 -151 l0 -131 34 0 c34 0 34 1 38
49 1 27 2 143 0 259 -3 230 -1 222 -64 214z"/>
<path d="M563 2285 c-17 -7 -36 -23 -42 -34 -7 -12 -11 -95 -12 -213 -1 -285
-5 -258 36 -258 l35 0 0 90 0 90 164 0 c122 0 166 -3 169 -12 4 -10 6 -10 6 0
1 6 8 12 16 12 20 0 21 -128 2 -155 -17 -22 -37 -12 -38 18 0 19 -1 19 -7 4
-11 -26 -35 -4 -67 58 -14 28 -25 42 -25 32 0 -30 37 -92 74 -125 20 -17 36
-36 36 -42 0 -12 30 -13 49 -1 7 5 10 14 7 20 -5 7 4 11 23 11 l31 0 0 228 c0
255 -2 263 -68 282 -57 15 -350 12 -389 -5z m385 -158 l3 -88 -151 3 c-144 3
-150 2 -151 -17 -2 -19 -2 -19 -6 1 -3 16 -10 20 -33 16 l-28 -4 -1 82 c0 46
2 87 5 92 3 4 85 7 182 6 l177 -3 3 -88z"/>
<path d="M2714 2293 c-12 -2 -32 -15 -45 -29 -23 -25 -24 -32 -27 -202 -4
-212 3 -247 55 -269 29 -12 74 -14 225 -11 l190 3 24 28 c24 28 24 31 24 223
0 121 -4 203 -11 216 -21 39 -67 48 -246 47 -92 -1 -178 -4 -189 -6z m336 -78
c0 -3 -66 -60 -147 -127 -82 -67 -156 -128 -165 -136 -17 -14 -18 -7 -18 126
l0 142 165 0 c91 0 165 -2 165 -5z m38 -217 l-3 -133 -169 -3 -168 -2 163 135
c90 74 167 135 172 135 4 0 6 -60 5 -132z"/>
<path d="M3180 2260 l0 -40 178 -2 177 -3 3 -217 2 -218 35 0 35 0 0 226 c0
142 -4 233 -11 246 -21 39 -67 48 -249 48 l-170 0 0 -40z"/>
<path d="M1080 1911 l0 -291 40 0 40 0 0 80 0 80 113 0 112 -1 -55 -34 c-58
-37 -77 -63 -66 -91 4 -11 14 -15 31 -12 14 3 25 3 25 0 0 -3 -14 -27 -31 -54
-61 -95 -195 -191 -309 -222 -36 -9 -93 -14 -165 -12 -97 2 -116 5 -161 28
-28 15 -66 39 -85 54 l-34 28 34 -36 c76 -82 202 -124 340 -115 198 13 361
105 464 261 21 32 28 36 33 23 7 -20 24 -22 48 -4 17 12 17 17 2 77 -9 36 -21
75 -26 88 -8 19 -6 24 13 31 12 5 31 19 42 31 18 20 20 36 20 171 l0 149 -28
27 -27 28 -185 3 -185 3 0 -290z m350 79 l0 -130 -135 0 -135 0 0 130 0 130
135 0 135 0 0 -130z"/>
<path d="M2208 2184 c-15 -8 -32 -23 -38 -34 -5 -10 -10 -84 -10 -164 0 -139
1 -146 24 -173 l24 -28 186 -3 186 -4 0 41 0 41 -172 2 -173 3 0 125 0 125
173 3 172 2 0 40 0 40 -172 0 c-133 -1 -179 -4 -200 -16z"/>
<path d="M2002 1748 c-19 -19 -15 -48 7 -48 24 0 36 30 18 47 -10 10 -15 11
-25 1z"/>
<path d="M2026 1608 c-3 -7 -7 -29 -10 -48 -4 -19 -20 -52 -38 -73 -30 -39
-31 -39 -4 -22 33 22 53 59 62 114 6 38 -1 58 -10 29z"/>
<path d="M2420 1522 c0 -47 5 -83 12 -90 14 -14 68 -16 68 -2 0 6 -13 10 -30
10 -29 0 -30 2 -30 45 0 41 2 45 24 45 14 0 28 5 31 10 4 6 -7 10 -24 10 -26
0 -31 4 -31 25 0 14 -4 25 -10 25 -6 0 -10 -33 -10 -78z"/>
<path d="M1698 1573 c17 -2 47 -2 65 0 17 2 3 4 -33 4 -36 0 -50 -2 -32 -4z"/>
<path d="M2060 1510 l0 -70 -58 0 c-33 0 -64 5 -71 13 -10 10 -12 8 -9 -8 3
-18 11 -20 78 -20 l75 0 5 78 c4 58 2 77 -7 77 -9 0 -13 -21 -13 -70z"/>
<path d="M2112 1488 l3 -63 60 0 60 0 1 65 c1 64 1 64 -3 8 l-4 -58 -49 0 -50
0 0 55 c0 32 -4 55 -10 55 -7 0 -10 -24 -8 -62z"/>
<path d="M2270 1515 l0 -35 55 0 c49 0 55 -2 55 -21 0 -19 -5 -21 -55 -17 -34
2 -54 -1 -52 -7 2 -5 30 -10 63 -10 55 0 59 2 62 24 5 33 -21 51 -75 51 -32 0
-43 4 -43 15 0 12 13 15 61 15 37 0 58 4 54 10 -3 6 -33 10 -66 10 l-59 0 0
-35z"/>
<path d="M2585 1540 c3 -5 31 -10 61 -10 40 0 54 -4 54 -15 0 -10 -15 -15 -57
-17 l-58 -3 0 -35 0 -35 68 -3 67 -3 0 50 c0 78 -3 81 -77 81 -40 0 -62 -4
-58 -10z m115 -80 c0 -17 -7 -20 -50 -20 -43 0 -50 3 -50 20 0 17 7 20 50 20
43 0 50 -3 50 -20z"/>
<path d="M2804 1537 c-3 -8 -4 -36 -2 -63 l3 -49 58 -3 c42 -2 57 -7 57 -17 0
-11 -12 -15 -44 -15 -25 0 -48 -5 -51 -11 -5 -7 11 -9 47 -7 l53 3 0 85 0 85
-58 3 c-42 2 -59 -1 -63 -11z m116 -52 l0 -45 -50 0 -50 0 0 45 0 45 50 0 50
0 0 -45z"/>
<path d="M2960 1540 c0 -6 23 -10 55 -10 42 0 55 -3 55 -15 0 -12 -13 -15 -56
-15 l-55 0 3 -37 3 -38 63 -3 63 -3 -3 63 -3 63 -62 3 c-39 2 -63 -1 -63 -8z
m110 -80 c0 -17 -7 -20 -50 -20 -43 0 -50 3 -50 20 0 17 7 20 50 20 43 0 50
-3 50 -20z"/>
<path d="M3110 1485 c0 -37 4 -65 10 -65 6 0 10 25 10 55 l0 55 35 0 35 0 0
-55 c0 -30 5 -55 10 -55 6 0 10 25 10 55 l0 55 40 0 39 0 4 -57 3 -58 2 68 2
67 -100 0 -100 0 0 -65z"/>
<path d="M3342 1488 l3 -63 63 -3 c38 -2 62 1 62 8 0 6 -25 10 -60 10 -53 0
-60 2 -60 20 0 18 7 20 61 20 l60 0 -3 33 -3 32 -63 3 -63 3 3 -63z m108 27
c0 -11 -12 -15 -50 -15 -38 0 -50 4 -50 15 0 11 12 15 50 15 38 0 50 -4 50
-15z"/>
<path d="M3496 1534 c-10 -26 -7 -114 4 -114 6 0 10 25 10 55 l0 55 40 0 c22
0 40 5 40 10 0 17 -87 12 -94 -6z"/>
</g>
</svg>
